<svg xmlns="http://www.w3.org/2000/svg" width="32" height="32" viewBox="0 0 32 32" fill="none">
  <rect width="32" height="32" rx="8" fill="#1E40AF"/>
  <!-- BookOpen icon (lucide-react, simplified) -->
  <path d="M6 9.5C6 8.67 6.67 8 7.5 8H14C14.55 8 15 8.45 15 9V23C15 23.55 14.55 24 14 24H7.5C6.67 24 6 23.33 6 22.5V9.5Z" fill="white" fill-opacity="0.25"/>
  <path d="M26 9.5C26 8.67 25.33 8 24.5 8H18C17.45 8 17 8.45 17 9V23C17 23.55 17.45 24 18 24H24.5C25.33 24 26 23.33 26 22.5V9.5Z" fill="white" fill-opacity="0.25"/>
  <path d="M15 9C15 9 15.5 8 16 8C16.5 8 17 9 17 9V23C17 23 16.5 24 16 24C15.5 24 15 23 15 23V9Z" fill="white" fill-opacity="0.4"/>
  <line x1="8" y1="12" x2="13" y2="12" stroke="white" stroke-width="1.5" stroke-linecap="round"/>
  <line x1="8" y1="15" x2="13" y2="15" stroke="white" stroke-width="1.5" stroke-linecap="round"/>
  <line x1="8" y1="18" x2="13" y2="18" stroke="white" stroke-width="1.5" stroke-linecap="round"/>
  <line x1="19" y1="12" x2="24" y2="12" stroke="white" stroke-width="1.5" stroke-linecap="round"/>
  <line x1="19" y1="15" x2="24" y2="15" stroke="white" stroke-width="1.5" stroke-linecap="round"/>
  <line x1="19" y1="18" x2="24" y2="18" stroke="white" stroke-width="1.5" stroke-linecap="round"/>
</svg>
